<svg xmlns="http://www.w3.org/2000/svg" viewBox="0 0 48 48">
  <rect width="48" height="48" fill="#16226e"/>
  <g fill="none">
    <path d="M8 14 L14 8 L34 8 L40 14 L40 34 L34 40 L14 40 L8 34 Z" stroke="#ffffff" stroke-width="1.6" opacity="0.9"/>
    <path d="M33 24 L30.4 30.4 L24 33 L17.6 30.4 L15 24 L17.6 17.6 L24 15 L30.4 17.6 Z" stroke="#ffffff" stroke-width="1.4"/>
    <g stroke="#ffffff" stroke-width="1.3" stroke-linecap="round">
      <path d="M33 24 L28 24"/><path d="M24 33 L24 28"/><path d="M15 24 L20 24"/><path d="M24 15 L24 20"/>
      <path d="M30.4 30.4 L26.8 26.8"/><path d="M30.4 17.6 L26.8 21.2"/>
    </g>
    <path d="M17.6 17.6 L21.2 21.2" stroke="#cfa574" stroke-width="1.8" stroke-linecap="round"/>
    <circle cx="24" cy="24" r="3.4" stroke="#ffffff" stroke-width="1.3"/>
    <circle cx="24" cy="24" r="1.6" fill="#cfa574"/>
  </g>
</svg>
